<svg xmlns="http://www.w3.org/2000/svg" xmlns:xlink="http://www.w3.org/1999/xlink" viewBox="0 0 1096.77 200"><defs><style>.a,.e{fill:none;}.b{clip-path:url(#a);}.c{isolation:isolate;}.d{fill:#fff;}.e{stroke:#10f24c;stroke-width:50px;}</style><clipPath id="a" transform="translate(-10 -9)"><rect class="a" width="1122" height="218"/></clipPath></defs><g class="b"><g class="c"><g class="c"><path class="d" d="M343.22,45.58c1.68.28,2.24,1,2.24,2.24V56.5c0,1.54-.7,2.38-2.1,2.38H311c-10.5,0-15.68,3.36-15.68,10.78V71.9c0,5.88,2,9.38,9.38,12.46L333.14,95.7c13.16,5.32,17.64,12.6,17.64,26.18v4.34c0,21-16.52,25.48-38.5,25.48a233.45,233.45,0,0,1-34.44-2.52c-1.4-.28-2-1-2-2.52v-8.4a1.94,1.94,0,0,1,2.24-2.24h39.06c10.36,0,15.54-3.08,15.54-10.5v-2.38c0-6.44-2.38-10.22-10.36-13.44L292.12,97.8c-11.34-4.2-14.84-12.6-14.84-26V68.54c0-21,15.54-25.34,37.8-25.34C326.7,43.2,332.16,43.9,343.22,45.58Z" transform="translate(-10 -9)"/><path class="d" d="M383.54,51.46c0,6.16-3.5,9.66-10.08,9.66s-10.22-3.5-10.22-9.66,3.64-9.66,10.22-9.66S383.54,45.3,383.54,51.46Zm-3.78,22.12a1.86,1.86,0,0,1,2.1,2.1V148.9a1.86,1.86,0,0,1-2.1,2.1H367a1.86,1.86,0,0,1-2.1-2.1V75.68a1.86,1.86,0,0,1,2.1-2.1Z" transform="translate(-10 -9)"/><path class="d" d="M505.48,103.82l-.28,45.08c0,1.4-.56,2.1-2,2.1H490.5c-1.4,0-2-.7-2-2.1V109.14c0-20.72-3.22-21.7-15.4-21.7a86,86,0,0,0-14,1.12c1.4,4.2,2.1,9.8,2.1,17.5L461,148.9c0,1.54-.56,2.1-1.82,2.1H446.26a1.86,1.86,0,0,1-2.1-2.1V106.34c0-18.06-3.5-18.76-15.4-18.76h-11.9V148.9a1.86,1.86,0,0,1-2.1,2.1H402c-1.4,0-2-.7-2.1-2.1V77.36c0-1.68.7-2,2.1-2.24a142,142,0,0,1,24.92-2.24c9.8,0,19,1.82,24.08,4.2a77.74,77.74,0,0,1,23.52-4.34C497.64,72.74,505.62,77.36,505.48,103.82Z" transform="translate(-10 -9)"/><path class="d" d="M590,111.66c0,31.78-6.3,40-32.2,40a147,147,0,0,1-17.78-.84v25.9c0,1.54-.7,2.24-2.1,2.24H525.08c-1.4,0-2.1-.7-2.1-2.24V78.2c0-1.68,1-2.52,2.66-2.8a165.8,165.8,0,0,1,29.82-2.52C583.74,72.88,590,81,590,111.66Zm-50-24.08V136a140.69,140.69,0,0,0,15.12.84c15.82,0,17.92-4.62,17.92-24.64,0-19.18-1.54-24.64-17.08-24.64Z" transform="translate(-10 -9)"/><path class="d" d="M620.56,43.9a1.86,1.86,0,0,1,2.1,2.1V148.9a1.86,1.86,0,0,1-2.1,2.1H607.82a1.86,1.86,0,0,1-2.1-2.1V46a1.86,1.86,0,0,1,2.1-2.1Z" transform="translate(-10 -9)"/><path class="d" d="M705.4,73.58a1.86,1.86,0,0,1,2.1,2.1v70.84c-.14,24.36-4.9,33.18-33.32,33.18a152.59,152.59,0,0,1-23.66-1.54,2,2,0,0,1-1.82-2.24v-8.26c0-1.54.56-2.1,2-2.1H673.2c14,0,17.36-3.36,17.36-14.42v-.7a105.93,105.93,0,0,1-17.92,1.26c-25.9,0-32.48-8.82-32.48-37.1V75.68a1.86,1.86,0,0,1,2.1-2.1H655a1.86,1.86,0,0,1,2.1,2.1v36.54c0,20,2.52,24.64,18.2,24.64a114,114,0,0,0,15.26-.84V75.68a1.86,1.86,0,0,1,2.1-2.1Z" transform="translate(-10 -9)"/><path class="d" d="M794.43,44.88c1.68.28,2.66,1.12,2.66,2.94v8.82c0,1.54-.7,2.24-2.1,2.24h-27.3c-21.84,0-25.62,8.68-25.62,38.5S745.85,136,767.69,136H795a1.86,1.86,0,0,1,2.1,2.1v8.82a2.85,2.85,0,0,1-2.66,3.08,175,175,0,0,1-26.74,1.68c-34.86,0-43.82-12.46-43.82-54.32s9-54.18,43.82-54.18C778.33,43.2,787.57,43.62,794.43,44.88Z" transform="translate(-10 -9)"/><path class="d" d="M875.63,112.36c0,31.5-6.16,39.34-34.16,39.34s-34-7.84-34-39.34,6-39.48,34-39.48S875.63,80.72,875.63,112.36Zm-51.24,0c0,19.74,2.1,24.64,17.08,24.64s17.08-4.9,17.08-24.64-2.1-24.78-17.08-24.78S824.39,92.48,824.39,112.36Z" transform="translate(-10 -9)"/><path class="d" d="M953.61,44c1.54,0,2.1.56,2.1,2.1v100.1c0,2-.84,2.66-2.52,2.94a167.28,167.28,0,0,1-30,2.52c-28.28,0-34.44-8-34.44-39.34,0-31.08,6.16-39.48,32.06-39.48a155.09,155.09,0,0,1,17.92.84V46.14c0-1.54.7-2.1,2.1-2.1Zm-30.1,43.54c-15.68,0-17.78,4.62-17.78,24.78,0,19,1.54,24.64,17.36,24.64a125.14,125.14,0,0,0,15.68-1.12V87.58Z" transform="translate(-10 -9)"/><path class="d" d="M1037.47,110.82V115c0,2.66-.84,3.78-4.76,3.78H988.33c.42,14.84,3.78,18.2,17.36,18.2h23.94a1.86,1.86,0,0,1,2.1,2.1v8.68a2.12,2.12,0,0,1-2,2.38,173.22,173.22,0,0,1-25.06,1.54c-27.3,0-33.46-7.84-33.46-39.34s6.16-39.48,33.46-39.48C1031,72.88,1037.19,80.44,1037.47,110.82Zm-49.14-4.2h32.06c-.14-15.12-3.22-19-15.68-19C991.69,87.58,988.47,91.5,988.33,106.62Z" transform="translate(-10 -9)"/><path class="d" d="M1101.59,74.42c1.4.28,2.1,1,2.1,2.24v8.26c0,1.4-.7,2.1-2.24,2.1h-25.76c-5.88,0-9.24,1.82-9.24,6.16v1.68c0,3.36,1.82,6,7.7,8.26l18.34,6.72c12.32,4.62,14.28,11.76,14.28,20.44v1.82c0,16-10.64,19.6-29,19.6-12.18,0-22.68-.84-27.3-1.26-1.68-.14-2.1-.84-2.1-2.1v-8.68c0-1.54.56-2.24,2.24-2.24h27.16c9.38,0,12.32-1.12,12.32-6V130c0-3.36-1.68-5.6-8-8l-18.48-7c-10.92-3.92-14-12.32-14-20.58v-2.8c0-15.26,12.6-18.76,30.1-18.76A143.46,143.46,0,0,1,1101.59,74.42Z" transform="translate(-10 -9)"/></g></g><circle class="a" cx="100" cy="100" r="100"/><circle class="e" cx="100" cy="100" r="75"/></g></svg>